<svg xmlns="http://www.w3.org/2000/svg" width="280" height="318" viewBox="0 0 280 318">
  <metadata><?xpacket begin="﻿" id="W5M0MpCehiHzreSzNTczkc9d"?>
<x:xmpmeta xmlns:x="adobe:ns:meta/" x:xmptk="Adobe XMP Core 5.6-c142 79.160924, 2017/07/13-01:06:39        ">
   <rdf:RDF xmlns:rdf="http://www.w3.org/1999/02/22-rdf-syntax-ns#">
      <rdf:Description rdf:about=""/>
   </rdf:RDF>
</x:xmpmeta>
                                                                                                    
                                                                                                    
                                                                                                    
                                                                                                    
                                                                                                    
                                                                                                    
                                                                                                    
                                                                                                    
                                                                                                    
                                                                                                    
                                                                                                    
                                                                                                    
                                                                                                    
                                                                                                    
                                                                                                    
                                                                                                    
                                                                                                    
                                                                                                    
                                                                                                    
                                                                                                    
                           
<?xpacket end="w"?></metadata>
<defs>
    <style>
      .cls-1 {
        fill: #ae529f;
      }

      .cls-1, .cls-2, .cls-3, .cls-4, .cls-5, .cls-6, .cls-7, .cls-8, .cls-9 {
        fill-rule: evenodd;
      }

      .cls-2 {
        fill: #6a52a2;
      }

      .cls-3 {
        fill: #4fc7e4;
      }

      .cls-4 {
        fill: #6cc28d;
      }

      .cls-5 {
        fill: #bbd631;
      }

      .cls-6 {
        fill: #f1bf22;
      }

      .cls-7 {
        fill: #65c9d3;
      }

      .cls-8 {
        fill: #96c26e;
      }

      .cls-9 {
        fill: #6c94cd;
      }
    </style>
  </defs>
  <path id="Shape_1_copy" data-name="Shape 1 copy" class="cls-1" d="M32.487,194.994s-5.9-15.081-5.5-17.054,19.8-5.656,19.8-11.552-16.109-7.2-16.9-10.355,22.035-38.564,24.6-39.156,22.263,6.56,26.406,7.152,51.43-.5,52.811-3.851-11.085-28.046-9.9-30.807,22.9-3.934,25.856-2.751,5.968,16.493,7.151,19.255a32.165,32.165,0,0,0,3.851,6.051,14.525,14.525,0,0,0-4.443,5.034c-1.38,2.959-1.525,9.881-2.708,14.22s-18.154,41.259-18.154,41.259Z"/>
  <path id="Shape_2_copy" data-name="Shape 2 copy" class="cls-2" d="M143.061,297.867s-12.1,7.151-17.6,6.6S105.1,279.162,105.1,279.162s-5.5-6.051-3.3-12.1,17.054-6.052,19.8-9.9,2.75-32.457-2.751-37.409-77.567-1.65-81.968-4.4-2.2-13.753-2.2-13.753l100.121-23.1s-0.986,19.09-2.2,24.756-6.487,27.114-6.69,36.422,4.894,15.409,5.5,22.694,1.883,15.934,2.693,21.6S143.061,297.867,143.061,297.867Z"/>
  <path id="Shape_3_copy" data-name="Shape 3 copy" class="cls-3" d="M163.966,117.427s3.259-.519,3.851,1.65-6.488,24.745-5.5,27.506,38.695-.124,41.259,1.651,5.041,19.945,5.041,19.945l-66.36,3.672s13.884-28.349,15.659-34.069,2.193-13.5,3.18-16.258A9.014,9.014,0,0,1,163.966,117.427Z"/>
  <path id="Shape_4_copy" data-name="Shape 4 copy" class="cls-4" d="M210.176,173.539s3.4,16.213,7.151,20.355,26.9,6.871,30.257,8.252,4.951,6.6,4.951,6.6L136.46,251.106s-4.8-7.327-4.4-12.652,5.1-24.749,6.757-32.468c1.775-8.285,2.595-27.5,2.595-27.5Z"/>
  <path id="Shape_5_copy" data-name="Shape 5 copy" class="cls-5" d="M150.763,296.766s-8.677-8.977-10.452-14.3-2.2-24.205-2.2-24.205l5.387-2.512s1.754,11.5,4.515,14.064,14.3,1.1,14.3,1.1,0.478,8.708-1.1,12.652S150.763,296.766,150.763,296.766Z"/>
  <path id="Shape_6_copy" data-name="Shape 6 copy" class="cls-6" d="M149.226,254.251s0.27,6.9,2.637,10.058,11.542,0.27,14.3,1.651,3.3,5.5,3.3,5.5,12.039-3.851,18.154-3.851,3.59,2.751,9.9,2.751,42.671-15.071,43.46-19.8-8.491-17.043-7.7-19.8,22.388-8.947,23.375-11.117-1.526-5.428-1.526-5.428Z"/>
  <path class="cls-7" d="M171.376,139.387c2.176,3.481,31.362,2.688,31.362,2.688s13.6-16.981,18.818-25.683S226.3,77.673,225,66.8s-39.821-33.568-42.867-32.263c-1.935.829-5.2,43.42-7.468,73.924-0.085,1.151-3.679,2.924-3.767,4.042-0.045.582,3.1,4.135,3.051,4.706C172.729,132.253,170.662,138.244,171.376,139.387Z"/>
  <path class="cls-8" d="M79.979,117.878c-8.563-.267-30.124-10.941-32.532-12.546s-3.4-7.632-3.136-10.307,13.82-43.017,17.3-43.017S77.931,92.076,80.875,93.681s34.063-2.234,36.739-.9,9.042,17.937,7.168,20.612S88.542,118.146,79.979,117.878Z"/>
  <path class="cls-9" d="M67.434,45.735s9.3-31.406,51.075-32.711,56,17.476,56,19.268-4.481,74.832-4.481,74.832l-6.272-.448-7.617-30.023L120.3,82.031,83.563,83.823Z"/>
  <path class="cls-7" d="M44.136,116.982c-0.8-2.14-.95-10.564-4.162-9.227s-26.969,25.82-25.364,28.5,12.512,6.18,15.188,5.377S44.939,119.122,44.136,116.982Z"/>
</svg>
